<svg xmlns="http://www.w3.org/2000/svg" xmlns:xlink="http://www.w3.org/1999/xlink" width="500" zoomAndPan="magnify" viewBox="0 0 375 374.999991" height="500" preserveAspectRatio="xMidYMid meet" version="1.0"><defs><g/><clipPath id="2c1aaa0b53"><path d="M 92.113281 90.816406 L 279.613281 90.816406 L 279.613281 278 L 92.113281 278 Z M 92.113281 90.816406 " clip-rule="nonzero"/></clipPath></defs><g clip-path="url(#2c1aaa0b53)"><path fill="#122620" d="M 185.699219 277.988281 C 133.996094 277.988281 92.113281 235.816406 92.113281 184.402344 C 92.113281 132.988281 133.996094 90.816406 185.699219 90.816406 C 237.402344 90.816406 279.285156 132.699219 279.285156 184.402344 C 279.285156 236.105469 237.113281 277.988281 185.699219 277.988281 Z M 185.699219 96.59375 C 137.175781 96.59375 97.890625 135.875 97.890625 184.402344 C 97.890625 232.929688 137.175781 272.210938 185.699219 272.210938 C 234.226562 272.210938 273.507812 232.929688 273.507812 184.402344 C 273.507812 135.875 233.9375 96.59375 185.699219 96.59375 Z M 185.699219 96.59375 " fill-opacity="1" fill-rule="nonzero"/></g><path stroke-linecap="butt" transform="matrix(0.75, 0, 0, 0.75, 69.32406, 91.306048)" fill="none" stroke-linejoin="miter" d="M 116.010636 137.623196 L 117.739803 121.216944 C 119.00022 111.232569 120.208553 101.85236 121.359595 93.071109 C 122.515845 84.289859 123.75022 75.706525 125.057512 67.310691 C 126.364803 58.888815 127.880428 50.263815 129.599179 41.435689 C 131.349179 32.581522 133.385637 23.05548 135.724179 12.862771 C 133.823137 12.862771 131.245012 13.133604 127.984595 13.670062 C 124.724178 14.185687 121.120011 14.815896 117.166886 15.560688 C 113.234594 16.279438 109.297094 17.086729 105.343969 17.987771 C 101.416885 18.883604 97.823135 19.706521 94.562718 20.451313 C 91.302301 21.170063 88.771051 21.748188 86.974176 22.18048 C 83.073134 23.232563 79.286675 24.263813 75.6148 25.263813 C 71.948133 26.263813 68.20855 27.341938 64.411674 28.498188 C 62.640841 29.008605 60.328341 29.74298 57.479382 30.690897 C 54.630424 31.644022 51.974173 32.696105 49.510632 33.847147 C 47.04709 35.003397 45.39084 36.211731 44.541881 37.466939 C 44.95334 38.831522 45.73459 39.883606 46.89084 40.628398 C 48.073132 41.373189 49.187715 42.154439 50.239798 42.977356 L 68.687716 56.414857 C 77.20855 62.805482 84.692926 69.878399 91.135634 77.6284 C 97.604385 85.357567 102.786677 94.211734 106.692927 104.201318 C 109.307511 110.722152 111.093969 115.930486 112.041886 119.831528 C 112.995011 123.711736 113.646053 126.904445 114.005428 129.42007 C 114.390844 131.935695 114.942928 134.414862 115.661678 136.852362 Z M 39.187714 36.352356 C 39.187714 35.097147 39.713756 33.914855 40.771048 32.810689 C 41.823131 31.706522 43.000215 30.716939 44.312715 29.847147 C 45.620006 28.946105 46.698131 28.227355 47.54709 27.690897 L 59.213757 22.800271 C 71.406466 18.586729 83.833551 15.071104 96.484593 12.248187 C 109.166886 9.399229 121.87522 7.295062 134.609596 5.930479 C 136.276262 5.727354 137.291887 5.446104 137.651262 5.086729 C 138.036679 4.701312 138.302304 4.326312 138.458554 3.966937 C 138.609596 3.58152 139.114804 3.39402 139.958554 3.39402 C 141.448138 3.39402 142.245013 3.508603 142.349179 3.73777 C 142.448138 3.946103 142.578346 4.17527 142.734596 4.430478 C 142.885638 4.685687 143.69293 4.867979 145.156471 4.972145 C 145.593971 4.972145 146.015846 4.972145 146.427305 4.972145 C 146.838763 4.972145 147.260638 4.972145 147.698138 4.972145 C 149.370013 4.972145 151.203347 4.946104 153.203347 4.89402 C 155.208555 4.841937 157.109597 4.815895 158.906472 4.815895 C 159.416889 4.815895 159.906472 4.815895 160.370014 4.815895 C 160.854389 4.815895 161.302306 4.815895 161.713764 4.815895 C 162.765847 4.920062 164.797098 5.138812 167.797098 5.472145 C 170.802306 5.779437 174.343973 6.201312 178.427307 6.742979 C 182.536682 7.253395 186.745016 7.857562 191.057516 8.55027 C 195.370016 9.216937 199.385641 9.977354 203.1096 10.821104 C 206.8596 11.670062 209.885642 12.571104 212.198142 13.519021 C 214.505434 14.440896 215.661684 15.482563 215.661684 16.638813 C 215.661684 18.435688 215.083559 19.331521 213.927309 19.331521 C 213.208559 19.331521 212.297101 19.180479 211.198142 18.873188 C 210.093976 18.534646 208.692934 18.164854 207.000225 17.753396 C 203.838767 17.008604 200.130433 16.253396 195.870016 15.482563 C 191.609599 14.685687 187.166891 13.982562 182.547099 13.362771 C 177.927307 12.722146 173.51064 12.222146 169.302306 11.862771 C 165.088764 11.477354 161.521056 11.284646 158.59918 11.284646 C 155.84918 11.284646 153.396055 11.399229 151.239805 11.633604 C 149.083555 11.836729 146.531471 11.940896 143.578346 11.940896 C 143.474179 12.248187 143.182513 13.503396 142.692929 15.711729 C 142.229388 17.920063 141.703346 20.451313 141.114804 23.300271 C 140.552304 26.123188 140.062721 28.716938 139.651263 31.076314 C 139.239804 33.440897 138.984596 34.99298 138.880429 35.737772 L 130.333554 83.831525 C 128.974179 92.560693 127.791887 101.003401 126.791887 109.16486 C 125.791887 117.305486 124.713762 125.581528 123.557512 134.003404 C 123.25022 136.315904 123.015845 138.472154 122.864803 140.472154 C 122.708553 142.472154 122.463761 144.680488 122.130428 147.097155 L 116.932511 198.347158 C 116.828344 199.399241 116.729386 200.706533 116.625219 202.274241 C 116.521053 203.867992 116.229386 205.289867 115.739803 206.550283 C 115.276261 207.805492 114.468969 208.4357 113.312719 208.4357 C 112.672094 208.4357 112.198136 208.242992 111.890844 207.857575 C 111.583552 207.4982 111.156469 207.164867 110.620011 206.857575 L 113.312719 162.076322 C 113.312719 157.555489 113.021052 152.716947 112.427302 147.555488 C 111.864802 142.399238 111.078344 137.263821 110.078344 132.154445 C 109.078344 127.071112 108.000219 122.477361 106.843969 118.367986 C 105.27626 112.492986 103.442927 107.269027 101.33876 102.69611 C 99.234593 98.128401 96.833551 93.789859 94.135635 89.685692 C 91.468968 85.576317 88.453343 81.414859 85.088759 77.206525 C 82.880426 74.383608 80.198134 71.638816 77.041883 68.966941 C 73.885633 66.274233 70.625216 63.664857 67.260633 61.149232 C 63.896049 58.607565 60.843966 56.336732 58.093966 54.336732 L 43.771048 44.091939 C 42.614798 43.242981 41.562714 42.242981 40.614798 41.086731 C 39.666881 39.935689 39.187714 38.352356 39.187714 36.352356 Z M 150.062722 131.617987 C 147.958555 131.617987 146.083555 130.935695 144.437721 129.57632 C 142.823138 128.216945 141.588763 126.800278 140.745013 125.341945 C 138.870013 121.748195 137.791887 117.508611 137.510637 112.633611 C 137.250221 107.72736 137.547096 103.28986 138.396054 99.310693 C 138.599179 98.154443 138.880429 96.769026 139.239804 95.149234 C 139.625221 93.508609 140.177304 92.055484 140.896054 90.800276 C 141.640846 89.513817 142.541888 88.873192 143.593971 88.873192 C 146.00543 88.873192 147.187721 89.696109 147.135638 91.336734 C 147.083555 92.956526 146.635638 95.482568 145.78668 98.925276 C 144.963763 102.336735 144.557513 106.716944 144.557513 112.055486 C 144.557513 113.649236 144.760638 115.545069 145.172096 117.753403 C 145.583555 119.961736 146.234596 121.914861 147.135638 123.60757 C 148.031471 125.274236 149.16168 126.10757 150.521055 126.10757 C 152.218972 126.10757 154.140847 125.378403 156.297097 123.914861 C 158.453347 122.425278 160.442931 120.769028 162.265847 118.946111 C 164.114806 117.097153 165.411681 115.701319 166.156473 114.748194 C 166.359598 114.545069 166.937723 113.836736 167.890848 112.633611 C 168.838764 111.425277 169.968973 110.065902 171.276265 108.550277 C 172.588765 107.00861 173.870015 105.66486 175.130432 104.50861 C 176.38564 103.35236 177.38564 102.774235 178.130432 102.774235 C 178.875223 102.774235 179.250224 103.404443 179.250224 104.659652 C 179.250224 105.404443 178.750223 106.534652 177.745015 108.050277 C 176.745015 109.565902 175.552307 111.170069 174.16689 112.862777 C 172.807515 114.534652 171.468973 116.112777 170.161681 117.602361 C 168.854389 119.060694 167.875223 120.117986 167.234598 120.758611 C 165.979389 122.01382 164.474181 123.519028 162.729389 125.26382 C 161.010639 126.98257 159.099181 128.472153 156.989805 129.727362 C 154.885639 130.987778 152.578347 131.617987 150.062722 131.617987 Z M 145.015846 69.003399 C 145.015846 67.232566 145.489805 65.696108 146.44293 64.383607 C 147.390846 63.050274 148.44293 62.383607 149.59918 62.383607 C 150.859597 62.383607 151.91168 63.180482 152.75543 64.769024 C 154.218972 67.696108 154.401264 69.982566 153.297097 71.623191 C 152.19293 73.242983 150.843972 74.050275 149.250222 74.050275 C 148.22418 74.050275 147.260638 73.638816 146.364805 72.8159 C 145.463763 71.97215 145.015846 70.701316 145.015846 69.003399 Z M 173.239806 118.873194 C 173.239806 113.607569 173.547098 107.935694 174.161682 101.85236 C 174.802307 95.742984 175.651265 89.696109 176.703348 83.716942 C 177.755432 77.706525 178.911682 72.279441 180.16689 67.425274 C 180.708557 65.862774 181.234599 64.102357 181.745015 62.149232 C 182.286682 60.201315 182.968974 58.519024 183.786682 57.107565 C 184.635641 55.696107 185.750224 54.987773 187.135641 54.987773 C 188.396057 54.987773 189.177307 55.461732 189.484599 56.414857 C 189.797099 57.336732 189.817933 58.46694 189.562724 59.800274 C 189.307516 61.112774 188.958557 62.315899 188.526266 63.420066 C 188.114807 64.524232 187.854391 65.284649 187.755432 65.696108 C 186.906474 68.852358 185.932516 73.138816 184.828349 78.555483 C 183.724182 83.97215 182.672099 89.888817 181.672099 96.305485 C 180.66689 102.722152 179.901265 109.091944 179.359599 115.404444 C 178.843973 121.696111 178.745015 127.394028 179.052307 132.503404 C 179.38564 137.607571 180.234599 141.524237 181.593974 144.248196 C 183.390849 143.295071 184.864807 141.873196 186.021057 139.972154 C 187.177307 138.097154 188.177307 136.26382 189.026266 134.466945 C 191.437724 129.847153 193.797099 124.956528 196.1096 119.795069 C 198.4221 114.633611 200.843975 109.795069 203.385642 105.279443 C 204.208558 103.607568 205.093975 102.774235 206.041892 102.774235 C 206.479392 102.774235 206.82835 102.956527 207.083559 103.315902 C 207.338767 103.675277 207.468975 104.07111 207.468975 104.50861 C 207.468975 104.815902 207.0471 105.815902 206.198142 107.513819 C 205.349184 109.180485 204.479392 110.91486 203.57835 112.711736 C 202.708558 114.482569 202.114808 115.633611 201.807517 116.175277 C 200.755433 118.383611 199.562725 120.961736 198.229391 123.914861 C 196.916891 126.841945 195.635641 129.727362 194.375225 132.57632 C 193.120016 135.430487 191.911683 137.841946 190.755433 139.815904 C 190.218974 140.664862 189.500224 141.795071 188.599182 143.206529 C 187.729391 144.644029 186.765849 145.888821 185.713766 146.940905 C 184.661682 147.992988 183.453349 148.51903 182.093974 148.51903 C 179.989807 148.51903 178.317932 147.466946 177.088765 145.362779 C 175.880432 143.258613 175.01064 140.628404 174.468973 137.466946 C 173.958556 134.310695 173.620015 131.050278 173.468973 127.690903 C 173.312723 124.32632 173.239806 121.388819 173.239806 118.873194 Z M 200.687725 115.060694 C 200.687725 112.852361 201.213767 110.117985 202.26585 106.857569 C 203.317933 103.597152 204.781475 100.362776 206.656475 97.154443 C 208.557517 93.946109 210.739809 91.300276 213.203351 89.222151 C 215.692934 87.117984 218.297101 86.065901 221.02106 86.065901 C 223.562726 86.065901 225.61481 86.795067 227.17731 88.258609 C 228.77106 89.722151 229.718977 91.222151 230.031477 92.763818 C 230.338769 94.279443 229.812727 95.034651 228.448143 95.034651 C 227.39606 95.034651 226.317935 94.430484 225.213768 93.227359 C 224.109601 92.019026 222.828351 91.414859 221.36481 91.414859 C 220.20856 91.414859 218.812726 92.097151 217.166893 93.456526 C 215.552309 94.815901 213.573142 97.498193 211.239809 101.503402 C 210.187726 103.201318 209.208559 105.378402 208.312725 108.050277 C 207.437725 110.722152 207.000225 113.378402 207.000225 116.019027 C 207.208559 115.815902 207.286684 115.737777 207.2346 115.789861 C 207.182517 115.841944 207.3596 115.649236 207.771059 115.211736 L 209.041892 113.326319 C 209.890851 112.065902 210.864809 110.435694 211.968976 108.435694 C 213.073142 106.435694 214.203351 104.420068 215.359601 102.388818 C 216.515851 100.336735 217.567934 98.60236 218.515851 97.190901 C 219.463768 95.753401 220.198143 95.034651 220.70856 95.034651 C 222.609601 95.034651 223.713768 95.727359 224.02106 97.112776 C 224.328351 98.47736 224.45856 100.154443 224.406476 102.159652 C 224.354393 104.13361 224.547101 106.123193 224.984602 108.128402 C 225.599185 110.97736 226.562727 113.055486 227.875227 114.367986 C 229.20856 115.675277 230.70856 116.331528 232.380435 116.331528 C 235.328352 116.331528 238.588769 114.545069 242.156478 110.97736 C 243.646061 109.617985 244.698144 108.487777 245.317936 107.586735 C 245.958561 106.690902 246.802311 105.66486 247.859603 104.50861 C 248.578353 103.456527 249.510645 102.930485 250.666895 102.930485 C 251.823145 102.930485 252.323145 103.904443 252.172103 105.857568 C 252.015853 107.779444 249.948145 110.69611 245.968978 114.597152 L 241.234603 118.367986 C 238.177311 120.477361 235.229394 121.529445 232.380435 121.529445 C 229.760643 121.529445 227.474185 120.742986 225.526268 119.180486 C 223.573143 117.586736 222.073143 115.633611 221.02106 113.326319 C 219.963768 111.013819 219.437726 108.75861 219.437726 106.550277 C 218.718976 107.086735 217.885643 108.253402 216.937726 110.050277 C 215.989809 111.826319 214.958559 113.737777 213.854392 115.789861 C 212.750226 117.841944 211.625226 119.628403 210.468976 121.144028 C 209.312725 122.659653 208.156475 123.414861 207.000225 123.414861 C 204.052308 123.414861 202.255433 122.73257 201.6096 121.373194 C 200.995017 120.013819 200.687725 117.909653 200.687725 115.060694 Z M 246.427311 119.024236 C 246.427311 111.451319 246.604395 103.878402 246.96377 96.305485 C 247.349186 88.732567 247.849186 81.430484 248.468978 74.394025 C 248.567936 73.654441 248.77627 71.920066 249.083561 69.196108 C 249.416895 66.451316 249.83877 63.269024 250.354395 59.649232 C 250.890853 56.003399 251.521062 52.446107 252.239812 48.982565 C 252.984603 45.519023 253.833562 42.628398 254.781478 40.321106 C 255.729395 38.008606 256.734604 36.852356 257.786687 36.852356 C 259.890854 36.852356 261.099187 37.404439 261.406479 38.508606 C 261.713771 39.612772 261.599187 41.112773 261.057521 43.013814 C 260.547104 44.888814 260.083562 47.02944 259.672104 49.446106 C 258.312729 57.222149 257.078354 65.644024 255.974187 74.706525 C 254.87002 83.742984 254.02627 92.727359 253.43252 101.659652 C 252.87002 110.591944 252.58877 118.795069 252.58877 126.26382 C 252.791895 126.060695 253.422103 124.930486 254.474187 122.873195 C 255.52627 120.821111 256.859604 118.216944 258.479395 115.060694 C 260.12002 111.899236 261.880437 108.565902 263.755437 105.045068 C 265.651271 101.529443 267.552313 98.216943 269.453354 95.112776 C 271.354396 92.008609 273.057521 89.492984 274.573146 87.565901 C 276.114813 85.612775 277.297105 84.638817 278.114813 84.638817 C 280.427313 84.638817 281.453355 85.1909 281.198147 86.295067 C 280.93773 87.399234 280.067938 88.899234 278.578355 90.800276 C 277.114813 92.675276 275.599188 94.930484 274.036688 97.576318 C 273.599188 98.190901 273.198146 98.795068 272.838771 99.388818 C 272.479396 99.951318 272.083563 100.555485 271.646063 101.19611 C 270.698146 102.763818 270.067938 103.992985 269.760646 104.894027 C 269.453354 105.78986 269.323146 106.894027 269.375229 108.206527 C 269.427313 109.513819 269.604396 111.696111 269.916896 114.748194 C 270.120021 116.956528 270.567938 119.769028 271.260646 123.185695 C 271.953355 126.597153 272.765855 130.01382 273.68773 133.425279 C 274.635646 136.867987 275.484605 139.638821 276.229397 141.742988 C 277.078355 143.722154 277.807522 145.180488 278.422105 146.133613 C 279.067938 147.08153 279.489813 148.08153 279.692938 149.138821 C 279.286688 149.545071 278.859605 149.982571 278.422105 150.446113 C 278.015855 150.935696 277.50023 151.17528 276.885647 151.17528 C 276.651272 151.17528 276.229397 151.076321 275.614813 150.867988 C 274.354396 150.253405 273.276271 149.149238 272.380438 147.555488 C 271.479396 145.992988 270.734605 144.310696 270.146063 142.513821 C 269.578354 140.716946 269.093979 139.190904 268.682521 137.930487 C 267.500229 134.466945 266.536688 130.925278 265.797104 127.305487 C 265.073146 123.659653 264.291896 120.050278 263.448146 116.482569 L 256.515854 131.617987 C 255.771062 133.925279 255.104395 136.315904 254.510645 138.779446 C 253.948145 141.269029 253.317937 143.347154 252.625228 145.013821 C 251.958562 146.711738 251.099187 147.555488 250.047103 147.555488 C 248.68252 147.555488 247.812728 147.055488 247.427311 146.055488 C 247.067936 145.055488 246.911686 143.821113 246.96377 142.357571 C 247.015853 140.894029 246.989811 139.524237 246.885645 138.237779 C 246.786686 137.081529 246.68252 136.185695 246.578353 135.54507 C 246.479395 134.925279 246.427311 133.88882 246.427311 132.425279 Z M 246.427311 119.024236 " stroke="#fbfbfb" stroke-width="11.829225" stroke-opacity="1" stroke-miterlimit="4"/><g fill="#151419" fill-opacity="1"><g transform="translate(93.980308, 189.556041)"><g><path d="M 62.34375 4.96875 L 63.640625 -7.328125 C 64.585938 -14.828125 65.492188 -21.867188 66.359375 -28.453125 C 67.234375 -35.035156 68.160156 -41.476562 69.140625 -47.78125 C 70.128906 -54.09375 71.273438 -60.5625 72.578125 -67.1875 C 73.878906 -73.8125 75.394531 -80.953125 77.125 -88.609375 C 75.707031 -88.609375 73.773438 -88.410156 71.328125 -88.015625 C 68.890625 -87.617188 66.191406 -87.144531 63.234375 -86.59375 C 60.273438 -86.039062 57.316406 -85.425781 54.359375 -84.75 C 51.398438 -84.082031 48.695312 -83.472656 46.25 -82.921875 C 43.8125 -82.367188 41.921875 -81.9375 40.578125 -81.625 C 37.660156 -80.832031 34.820312 -80.0625 32.0625 -79.3125 C 29.300781 -78.5625 26.5 -77.753906 23.65625 -76.890625 C 22.3125 -76.492188 20.578125 -75.941406 18.453125 -75.234375 C 16.328125 -74.523438 14.335938 -73.734375 12.484375 -72.859375 C 10.628906 -71.992188 9.382812 -71.09375 8.75 -70.15625 C 9.070312 -69.125 9.664062 -68.332031 10.53125 -67.78125 C 11.394531 -67.226562 12.222656 -66.640625 13.015625 -66.015625 L 26.859375 -55.953125 C 33.242188 -51.140625 38.859375 -45.832031 43.703125 -40.03125 C 48.554688 -34.238281 52.441406 -27.597656 55.359375 -20.109375 C 57.335938 -15.222656 58.679688 -11.316406 59.390625 -8.390625 C 60.097656 -5.472656 60.585938 -3.066406 60.859375 -1.171875 C 61.140625 0.710938 61.554688 2.5625 62.109375 4.375 Z M 4.734375 -70.984375 C 4.734375 -71.921875 5.125 -72.800781 5.90625 -73.625 C 6.695312 -74.457031 7.585938 -75.207031 8.578125 -75.875 C 9.566406 -76.550781 10.375 -77.085938 11 -77.484375 L 19.75 -81.15625 C 28.90625 -84.3125 38.234375 -86.953125 47.734375 -89.078125 C 57.234375 -91.203125 66.753906 -92.78125 76.296875 -93.8125 C 77.554688 -93.96875 78.320312 -94.179688 78.59375 -94.453125 C 78.875 -94.734375 79.070312 -95.007812 79.1875 -95.28125 C 79.3125 -95.5625 79.691406 -95.703125 80.328125 -95.703125 C 81.429688 -95.703125 82.019531 -95.625 82.09375 -95.46875 C 82.175781 -95.3125 82.273438 -95.132812 82.390625 -94.9375 C 82.515625 -94.738281 83.128906 -94.597656 84.234375 -94.515625 C 84.546875 -94.515625 84.859375 -94.515625 85.171875 -94.515625 C 85.484375 -94.515625 85.800781 -94.515625 86.125 -94.515625 C 87.382812 -94.515625 88.765625 -94.535156 90.265625 -94.578125 C 91.765625 -94.617188 93.179688 -94.640625 94.515625 -94.640625 C 94.910156 -94.640625 95.285156 -94.640625 95.640625 -94.640625 C 95.992188 -94.640625 96.332031 -94.640625 96.65625 -94.640625 C 97.4375 -94.554688 98.953125 -94.394531 101.203125 -94.15625 C 103.453125 -93.925781 106.113281 -93.613281 109.1875 -93.21875 C 112.257812 -92.820312 115.410156 -92.367188 118.640625 -91.859375 C 121.878906 -91.347656 124.898438 -90.773438 127.703125 -90.140625 C 130.503906 -89.515625 132.769531 -88.84375 134.5 -88.125 C 136.238281 -87.414062 137.109375 -86.628906 137.109375 -85.765625 C 137.109375 -84.421875 136.675781 -83.75 135.8125 -83.75 C 135.257812 -83.75 134.566406 -83.867188 133.734375 -84.109375 C 132.910156 -84.347656 131.863281 -84.625 130.59375 -84.9375 C 128.226562 -85.488281 125.445312 -86.0625 122.25 -86.65625 C 119.0625 -87.25 115.734375 -87.78125 112.265625 -88.25 C 108.796875 -88.71875 105.484375 -89.085938 102.328125 -89.359375 C 99.171875 -89.640625 96.488281 -89.78125 94.28125 -89.78125 C 92.226562 -89.78125 90.394531 -89.703125 88.78125 -89.546875 C 87.164062 -89.390625 85.253906 -89.3125 83.046875 -89.3125 C 82.960938 -89.070312 82.742188 -88.125 82.390625 -86.46875 C 82.035156 -84.8125 81.640625 -82.921875 81.203125 -80.796875 C 80.773438 -78.671875 80.398438 -76.71875 80.078125 -74.9375 C 79.765625 -73.164062 79.570312 -72.003906 79.5 -71.453125 L 73.109375 -35.375 C 72.078125 -28.820312 71.1875 -22.488281 70.4375 -16.375 C 69.695312 -10.269531 68.890625 -4.0625 68.015625 2.25 C 67.785156 3.976562 67.609375 5.59375 67.484375 7.09375 C 67.367188 8.59375 67.191406 10.25 66.953125 12.0625 L 63.046875 50.515625 C 62.972656 51.304688 62.894531 52.289062 62.8125 53.46875 C 62.738281 54.65625 62.519531 55.71875 62.15625 56.65625 C 61.800781 57.601562 61.191406 58.078125 60.328125 58.078125 C 59.859375 58.078125 59.503906 57.9375 59.265625 57.65625 C 59.023438 57.382812 58.710938 57.132812 58.328125 56.90625 L 60.328125 23.296875 C 60.328125 19.910156 60.109375 16.285156 59.671875 12.421875 C 59.242188 8.554688 58.65625 4.710938 57.90625 0.890625 C 57.15625 -2.929688 56.347656 -6.382812 55.484375 -9.46875 C 54.296875 -13.882812 52.910156 -17.804688 51.328125 -21.234375 C 49.753906 -24.660156 47.960938 -27.910156 45.953125 -30.984375 C 43.941406 -34.066406 41.675781 -37.1875 39.15625 -40.34375 C 37.5 -42.46875 35.488281 -44.535156 33.125 -46.546875 C 30.757812 -48.554688 28.3125 -50.507812 25.78125 -52.40625 C 23.257812 -54.300781 20.972656 -56 18.921875 -57.5 L 8.15625 -65.1875 C 7.289062 -65.8125 6.503906 -66.554688 5.796875 -67.421875 C 5.085938 -68.296875 4.734375 -69.484375 4.734375 -70.984375 Z M 4.734375 -70.984375 "/></g></g></g><g fill="#151419" fill-opacity="1"><g transform="translate(172.051039, 189.556041)"><g><path d="M 9.8125 0.46875 C 8.238281 0.46875 6.835938 -0.0390625 5.609375 -1.0625 C 4.390625 -2.09375 3.46875 -3.160156 2.84375 -4.265625 C 1.414062 -6.941406 0.601562 -10.113281 0.40625 -13.78125 C 0.21875 -17.445312 0.4375 -20.78125 1.0625 -23.78125 C 1.21875 -24.644531 1.429688 -25.6875 1.703125 -26.90625 C 1.984375 -28.132812 2.398438 -29.21875 2.953125 -30.15625 C 3.503906 -31.101562 4.175781 -31.578125 4.96875 -31.578125 C 6.78125 -31.578125 7.664062 -30.96875 7.625 -29.75 C 7.59375 -28.53125 7.257812 -26.640625 6.625 -24.078125 C 5.988281 -21.515625 5.671875 -18.222656 5.671875 -14.203125 C 5.671875 -13.015625 5.828125 -11.59375 6.140625 -9.9375 C 6.460938 -8.28125 6.957031 -6.820312 7.625 -5.5625 C 8.300781 -4.300781 9.148438 -3.671875 10.171875 -3.671875 C 11.429688 -3.671875 12.867188 -4.222656 14.484375 -5.328125 C 16.109375 -6.429688 17.609375 -7.671875 18.984375 -9.046875 C 20.367188 -10.429688 21.335938 -11.476562 21.890625 -12.1875 C 22.046875 -12.34375 22.476562 -12.875 23.1875 -13.78125 C 23.894531 -14.6875 24.738281 -15.710938 25.71875 -16.859375 C 26.707031 -18.003906 27.675781 -19.007812 28.625 -19.875 C 29.570312 -20.738281 30.320312 -21.171875 30.875 -21.171875 C 31.425781 -21.171875 31.703125 -20.695312 31.703125 -19.75 C 31.703125 -19.195312 31.328125 -18.347656 30.578125 -17.203125 C 29.828125 -16.066406 28.9375 -14.867188 27.90625 -13.609375 C 26.882812 -12.347656 25.878906 -11.164062 24.890625 -10.0625 C 23.910156 -8.957031 23.1875 -8.164062 22.71875 -7.6875 C 21.769531 -6.738281 20.644531 -5.613281 19.34375 -4.3125 C 18.039062 -3.007812 16.597656 -1.882812 15.015625 -0.9375 C 13.441406 0 11.707031 0.46875 9.8125 0.46875 Z M 6.03125 -46.484375 C 6.03125 -47.828125 6.382812 -48.988281 7.09375 -49.96875 C 7.800781 -50.957031 8.59375 -51.453125 9.46875 -51.453125 C 10.414062 -51.453125 11.203125 -50.863281 11.828125 -49.6875 C 12.929688 -47.476562 13.066406 -45.757812 12.234375 -44.53125 C 11.410156 -43.3125 10.410156 -42.703125 9.234375 -42.703125 C 8.441406 -42.703125 7.707031 -43.015625 7.03125 -43.640625 C 6.363281 -44.273438 6.03125 -45.222656 6.03125 -46.484375 Z M 6.03125 -46.484375 "/></g></g></g><g fill="#151419" fill-opacity="1"><g transform="translate(199.020928, 189.556041)"><g><path d="M 0.234375 -9.109375 C 0.234375 -13.054688 0.46875 -17.316406 0.9375 -21.890625 C 1.414062 -26.460938 2.046875 -30.992188 2.828125 -35.484375 C 3.617188 -39.984375 4.488281 -44.046875 5.4375 -47.671875 C 5.832031 -48.859375 6.226562 -50.179688 6.625 -51.640625 C 7.019531 -53.097656 7.53125 -54.359375 8.15625 -55.421875 C 8.789062 -56.484375 9.617188 -57.015625 10.640625 -57.015625 C 11.585938 -57.015625 12.179688 -56.660156 12.421875 -55.953125 C 12.660156 -55.242188 12.679688 -54.394531 12.484375 -53.40625 C 12.285156 -52.425781 12.023438 -51.519531 11.703125 -50.6875 C 11.390625 -49.863281 11.195312 -49.289062 11.125 -48.96875 C 10.488281 -46.601562 9.753906 -43.390625 8.921875 -39.328125 C 8.097656 -35.265625 7.3125 -30.828125 6.5625 -26.015625 C 5.8125 -21.210938 5.238281 -16.441406 4.84375 -11.703125 C 4.457031 -6.972656 4.378906 -2.695312 4.609375 1.125 C 4.847656 4.945312 5.476562 7.882812 6.5 9.9375 C 7.84375 9.226562 8.945312 8.160156 9.8125 6.734375 C 10.6875 5.316406 11.4375 3.941406 12.0625 2.609375 C 13.875 -0.867188 15.644531 -4.539062 17.375 -8.40625 C 19.113281 -12.269531 20.929688 -15.894531 22.828125 -19.28125 C 23.460938 -20.539062 24.132812 -21.171875 24.84375 -21.171875 C 25.15625 -21.171875 25.410156 -21.03125 25.609375 -20.75 C 25.804688 -20.476562 25.90625 -20.1875 25.90625 -19.875 C 25.90625 -19.632812 25.585938 -18.882812 24.953125 -17.625 C 24.328125 -16.363281 23.675781 -15.0625 23 -13.71875 C 22.332031 -12.382812 21.878906 -11.519531 21.640625 -11.125 C 20.859375 -9.46875 19.972656 -7.535156 18.984375 -5.328125 C 18.003906 -3.117188 17.039062 -0.953125 16.09375 1.171875 C 15.144531 3.304688 14.238281 5.125 13.375 6.625 C 12.976562 7.257812 12.441406 8.109375 11.765625 9.171875 C 11.097656 10.234375 10.367188 11.15625 9.578125 11.9375 C 8.796875 12.726562 7.890625 13.125 6.859375 13.125 C 5.285156 13.125 4.046875 12.335938 3.140625 10.765625 C 2.234375 9.191406 1.582031 7.21875 1.1875 4.84375 C 0.789062 2.476562 0.53125 0.0351562 0.40625 -2.484375 C 0.289062 -5.003906 0.234375 -7.210938 0.234375 -9.109375 Z M 0.234375 -9.109375 "/></g></g></g><g fill="#151419" fill-opacity="1"><g transform="translate(219.83979, 189.556041)"><g><path d="M 0 -11.953125 C 0 -13.609375 0.390625 -15.65625 1.171875 -18.09375 C 1.960938 -20.539062 3.066406 -22.96875 4.484375 -25.375 C 5.910156 -27.78125 7.550781 -29.769531 9.40625 -31.34375 C 11.257812 -32.925781 13.210938 -33.71875 15.265625 -33.71875 C 17.148438 -33.71875 18.679688 -33.164062 19.859375 -32.0625 C 21.046875 -30.957031 21.757812 -29.832031 22 -28.6875 C 22.238281 -27.539062 21.84375 -26.96875 20.8125 -26.96875 C 20.03125 -26.96875 19.222656 -27.421875 18.390625 -28.328125 C 17.566406 -29.234375 16.601562 -29.6875 15.5 -29.6875 C 14.632812 -29.6875 13.585938 -29.171875 12.359375 -28.140625 C 11.140625 -27.117188 9.660156 -25.113281 7.921875 -22.125 C 7.140625 -20.863281 6.410156 -19.226562 5.734375 -17.21875 C 5.066406 -15.207031 4.734375 -13.210938 4.734375 -11.234375 C 4.890625 -11.390625 4.945312 -11.445312 4.90625 -11.40625 C 4.863281 -11.375 5.003906 -11.515625 5.328125 -11.828125 L 6.265625 -13.25 C 6.898438 -14.195312 7.628906 -15.421875 8.453125 -16.921875 C 9.285156 -18.421875 10.132812 -19.9375 11 -21.46875 C 11.863281 -23.007812 12.648438 -24.3125 13.359375 -25.375 C 14.078125 -26.4375 14.632812 -26.96875 15.03125 -26.96875 C 16.445312 -26.96875 17.269531 -26.453125 17.5 -25.421875 C 17.738281 -24.398438 17.835938 -23.140625 17.796875 -21.640625 C 17.765625 -20.148438 17.90625 -18.65625 18.21875 -17.15625 C 18.6875 -15.019531 19.414062 -13.457031 20.40625 -12.46875 C 21.394531 -11.488281 22.519531 -11 23.78125 -11 C 25.988281 -11 28.429688 -12.34375 31.109375 -15.03125 C 32.210938 -16.050781 33 -16.894531 33.46875 -17.5625 C 33.945312 -18.238281 34.582031 -19.007812 35.375 -19.875 C 35.925781 -20.664062 36.632812 -21.0625 37.5 -21.0625 C 38.363281 -21.0625 38.738281 -20.332031 38.625 -18.875 C 38.507812 -17.414062 36.953125 -15.222656 33.953125 -12.296875 L 30.40625 -9.46875 C 28.113281 -7.882812 25.90625 -7.09375 23.78125 -7.09375 C 21.800781 -7.09375 20.082031 -7.679688 18.625 -8.859375 C 17.164062 -10.046875 16.039062 -11.507812 15.25 -13.25 C 14.46875 -14.988281 14.078125 -16.6875 14.078125 -18.34375 C 13.523438 -17.945312 12.894531 -17.078125 12.1875 -15.734375 C 11.476562 -14.390625 10.707031 -12.945312 9.875 -11.40625 C 9.050781 -9.875 8.203125 -8.535156 7.328125 -7.390625 C 6.460938 -6.242188 5.597656 -5.671875 4.734375 -5.671875 C 2.523438 -5.671875 1.179688 -6.179688 0.703125 -7.203125 C 0.234375 -8.234375 0 -9.816406 0 -11.953125 Z M 0 -11.953125 "/></g></g></g><g fill="#151419" fill-opacity="1"><g transform="translate(254.143602, 189.556041)"><g><path d="M 0 -8.984375 C 0 -14.671875 0.132812 -20.351562 0.40625 -26.03125 C 0.6875 -31.707031 1.0625 -37.1875 1.53125 -42.46875 C 1.613281 -43.019531 1.769531 -44.320312 2 -46.375 C 2.238281 -48.425781 2.554688 -50.8125 2.953125 -53.53125 C 3.347656 -56.25 3.820312 -58.910156 4.375 -61.515625 C 4.925781 -64.117188 5.554688 -66.285156 6.265625 -68.015625 C 6.972656 -69.753906 7.722656 -70.625 8.515625 -70.625 C 10.097656 -70.625 11.003906 -70.207031 11.234375 -69.375 C 11.472656 -68.550781 11.394531 -67.425781 11 -66 C 10.601562 -64.582031 10.25 -62.96875 9.9375 -61.15625 C 8.914062 -55.320312 7.988281 -49.015625 7.15625 -42.234375 C 6.332031 -35.453125 5.703125 -28.707031 5.265625 -22 C 4.828125 -15.300781 4.609375 -9.148438 4.609375 -3.546875 C 4.765625 -3.703125 5.238281 -4.550781 6.03125 -6.09375 C 6.820312 -7.632812 7.828125 -9.585938 9.046875 -11.953125 C 10.273438 -14.316406 11.597656 -16.816406 13.015625 -19.453125 C 14.429688 -22.097656 15.847656 -24.582031 17.265625 -26.90625 C 18.691406 -29.238281 19.972656 -31.132812 21.109375 -32.59375 C 22.253906 -34.050781 23.144531 -34.78125 23.78125 -34.78125 C 25.507812 -34.78125 26.273438 -34.363281 26.078125 -33.53125 C 25.878906 -32.707031 25.226562 -31.582031 24.125 -30.15625 C 23.019531 -28.738281 21.878906 -27.046875 20.703125 -25.078125 C 20.390625 -24.609375 20.09375 -24.15625 19.8125 -23.71875 C 19.539062 -23.28125 19.242188 -22.828125 18.921875 -22.359375 C 18.210938 -21.171875 17.738281 -20.242188 17.5 -19.578125 C 17.269531 -18.910156 17.171875 -18.082031 17.203125 -17.09375 C 17.242188 -16.101562 17.382812 -14.46875 17.625 -12.1875 C 17.78125 -10.53125 18.113281 -8.421875 18.625 -5.859375 C 19.144531 -3.296875 19.757812 -0.734375 20.46875 1.828125 C 21.175781 4.390625 21.804688 6.460938 22.359375 8.046875 C 22.984375 9.546875 23.53125 10.648438 24 11.359375 C 24.476562 12.066406 24.796875 12.816406 24.953125 13.609375 C 24.640625 13.921875 24.328125 14.253906 24.015625 14.609375 C 23.703125 14.960938 23.304688 15.140625 22.828125 15.140625 C 22.671875 15.140625 22.359375 15.0625 21.890625 14.90625 C 20.941406 14.4375 20.128906 13.609375 19.453125 12.421875 C 18.785156 11.234375 18.234375 9.96875 17.796875 8.625 C 17.367188 7.289062 17 6.148438 16.6875 5.203125 C 15.8125 2.597656 15.097656 -0.0625 14.546875 -2.78125 C 13.992188 -5.5 13.40625 -8.203125 12.78125 -10.890625 L 7.578125 0.46875 C 7.023438 2.207031 6.53125 4.003906 6.09375 5.859375 C 5.65625 7.710938 5.179688 9.269531 4.671875 10.53125 C 4.160156 11.789062 3.507812 12.421875 2.71875 12.421875 C 1.695312 12.421875 1.046875 12.046875 0.765625 11.296875 C 0.492188 10.546875 0.375 9.617188 0.40625 8.515625 C 0.445312 7.410156 0.429688 6.382812 0.359375 5.4375 C 0.273438 4.570312 0.191406 3.898438 0.109375 3.421875 C 0.0351562 2.953125 0 2.164062 0 1.0625 Z M 0 -8.984375 "/></g></g></g><path fill="#fbfbfb" d="M 269.238281 233.261719 C 269.578125 233.476562 269.898438 233.722656 270.191406 234 C 270.484375 234.277344 270.75 234.578125 270.988281 234.90625 C 271.222656 235.234375 271.425781 235.582031 271.59375 235.949219 C 271.765625 236.316406 271.898438 236.699219 271.992188 237.089844 C 272.085938 237.484375 272.144531 237.882812 272.164062 238.285156 C 272.183594 238.6875 272.160156 239.089844 272.101562 239.492188 C 272.042969 239.890625 271.945312 240.28125 271.8125 240.664062 C 271.679688 241.042969 271.507812 241.410156 271.304688 241.757812 C 270.132812 243.5 268.90625 245.203125 267.632812 246.867188 C 266.355469 248.535156 265.03125 250.160156 263.65625 251.746094 C 262.277344 253.332031 260.855469 254.875 259.386719 256.371094 C 257.917969 257.871094 256.40625 259.324219 254.847656 260.730469 C 253.289062 262.136719 251.691406 263.492188 250.046875 264.800781 C 248.40625 266.109375 246.730469 267.367188 245.011719 268.574219 C 243.292969 269.78125 241.542969 270.933594 239.753906 272.03125 C 237.964844 273.132812 236.144531 274.175781 234.292969 275.164062 C 232.441406 276.152344 230.5625 277.082031 228.65625 277.957031 C 226.746094 278.832031 224.8125 279.644531 222.855469 280.402344 C 220.898438 281.15625 218.917969 281.851562 216.917969 282.488281 C 214.917969 283.121094 212.898438 283.695312 210.863281 284.207031 C 208.828125 284.71875 206.78125 285.167969 204.71875 285.554688 C 202.652344 285.941406 200.582031 286.265625 198.5 286.523438 C 196.417969 286.785156 194.328125 286.980469 192.234375 287.113281 C 190.140625 287.246094 188.042969 287.316406 185.941406 287.320312 C 183.84375 287.324219 181.746094 287.265625 179.652344 287.144531 C 177.558594 287.019531 175.46875 286.832031 173.382812 286.582031 C 171.300781 286.332031 169.226562 286.019531 167.160156 285.640625 C 165.097656 285.265625 163.046875 284.824219 161.007812 284.324219 C 158.96875 283.820312 156.949219 283.257812 154.945312 282.632812 C 152.941406 282.007812 150.960938 281.320312 149 280.574219 C 147.039062 279.828125 145.101562 279.019531 143.1875 278.15625 C 141.277344 277.292969 139.390625 276.371094 137.535156 275.390625 C 135.679688 274.410156 133.855469 273.375 132.0625 272.285156 C 130.269531 271.195312 128.511719 270.050781 126.789062 268.851562 C 125.066406 267.652344 123.378906 266.402344 121.734375 265.101562 C 120.085938 263.800781 118.480469 262.449219 116.917969 261.050781 C 115.351562 259.652344 113.832031 258.207031 112.355469 256.714844 C 110.878906 255.222656 109.449219 253.6875 108.066406 252.109375 C 106.683594 250.53125 105.351562 248.910156 104.066406 247.25 C 102.785156 245.589844 101.550781 243.894531 100.371094 242.15625 C 100.164062 241.808594 99.992188 241.445312 99.855469 241.066406 C 99.722656 240.683594 99.621094 240.292969 99.5625 239.894531 C 99.5 239.496094 99.476562 239.09375 99.496094 238.6875 C 99.511719 238.285156 99.566406 237.886719 99.660156 237.492188 C 99.753906 237.101562 99.886719 236.71875 100.050781 236.351562 C 100.21875 235.984375 100.421875 235.632812 100.65625 235.304688 C 100.890625 234.976562 101.152344 234.671875 101.445312 234.394531 C 101.738281 234.113281 102.058594 233.867188 102.398438 233.648438 L 113.195312 227.230469 C 113.550781 227 113.925781 226.808594 114.320312 226.652344 C 114.710938 226.496094 115.117188 226.382812 115.535156 226.308594 C 115.949219 226.238281 116.371094 226.207031 116.792969 226.21875 C 117.214844 226.230469 117.632812 226.285156 118.042969 226.378906 C 118.457031 226.476562 118.855469 226.613281 119.238281 226.789062 C 119.625 226.964844 119.988281 227.175781 120.328125 227.425781 C 120.667969 227.675781 120.984375 227.957031 121.265625 228.269531 C 121.550781 228.582031 121.800781 228.921875 122.019531 229.285156 C 122.917969 230.554688 123.855469 231.796875 124.828125 233.007812 C 125.804688 234.222656 126.8125 235.40625 127.859375 236.558594 C 128.902344 237.710938 129.980469 238.832031 131.09375 239.917969 C 132.207031 241.007812 133.347656 242.0625 134.523438 243.082031 C 135.699219 244.101562 136.902344 245.085938 138.136719 246.035156 C 139.371094 246.980469 140.632812 247.890625 141.917969 248.765625 C 143.207031 249.636719 144.519531 250.472656 145.859375 251.265625 C 147.195312 252.058594 148.558594 252.8125 149.941406 253.523438 C 151.324219 254.238281 152.726562 254.910156 154.148438 255.539062 C 155.574219 256.167969 157.011719 256.75 158.472656 257.292969 C 159.929688 257.835938 161.402344 258.335938 162.890625 258.789062 C 164.378906 259.246094 165.878906 259.65625 167.390625 260.019531 C 168.902344 260.382812 170.425781 260.703125 171.957031 260.976562 C 173.488281 261.253906 175.027344 261.480469 176.574219 261.660156 C 178.117188 261.84375 179.667969 261.980469 181.222656 262.070312 C 182.773438 262.15625 184.328125 262.199219 185.882812 262.195312 C 187.441406 262.195312 188.996094 262.144531 190.546875 262.046875 C 192.101562 261.949219 193.648438 261.808594 195.195312 261.617188 C 196.738281 261.429688 198.273438 261.195312 199.804688 260.914062 C 201.335938 260.632812 202.855469 260.304688 204.367188 259.933594 C 205.878906 259.5625 207.375 259.144531 208.863281 258.683594 C 210.347656 258.222656 211.820312 257.714844 213.273438 257.167969 C 214.730469 256.617188 216.167969 256.023438 217.589844 255.390625 C 219.007812 254.753906 220.40625 254.078125 221.789062 253.355469 C 223.167969 252.636719 224.523438 251.878906 225.859375 251.078125 C 227.191406 250.277344 228.503906 249.4375 229.785156 248.558594 C 231.070312 247.679688 232.328125 246.765625 233.554688 245.8125 C 234.785156 244.855469 235.984375 243.867188 237.15625 242.84375 C 238.324219 241.816406 239.464844 240.757812 240.570312 239.664062 C 241.679688 238.570312 242.75 237.445312 243.789062 236.285156 C 244.828125 235.128906 245.835938 233.941406 246.800781 232.722656 C 247.769531 231.507812 248.703125 230.261719 249.597656 228.988281 C 249.8125 228.621094 250.058594 228.285156 250.34375 227.96875 C 250.625 227.65625 250.9375 227.371094 251.277344 227.121094 C 251.617188 226.871094 251.980469 226.65625 252.363281 226.476562 C 252.746094 226.296875 253.144531 226.160156 253.554688 226.0625 C 253.96875 225.964844 254.386719 225.910156 254.808594 225.894531 C 255.230469 225.882812 255.648438 225.910156 256.066406 225.980469 C 256.484375 226.054688 256.890625 226.164062 257.285156 226.320312 C 257.679688 226.472656 258.054688 226.664062 258.410156 226.890625 Z M 269.238281 233.261719 " fill-opacity="1" fill-rule="nonzero"/><g fill="#151419" fill-opacity="1"><g transform="translate(106.888406, 239.017929)"><g><path d="M 9.546875 -5.65625 L 12.5 -1.890625 C 13.207031 -0.984375 13.566406 -0.125 13.578125 0.6875 C 13.597656 1.507812 13.269531 2.179688 12.59375 2.703125 C 12.101562 3.085938 11.582031 3.273438 11.03125 3.265625 C 10.488281 3.265625 9.972656 3.078125 9.484375 2.703125 C 9.835938 3.347656 9.945312 3.988281 9.8125 4.625 C 9.6875 5.257812 9.332031 5.804688 8.75 6.265625 C 8.007812 6.835938 7.207031 7.007812 6.34375 6.78125 C 5.488281 6.5625 4.675781 5.960938 3.90625 4.984375 L 0.890625 1.125 Z M 9.390625 -3.171875 L 7.09375 -1.375 L 8.84375 0.84375 C 9.195312 1.3125 9.582031 1.597656 10 1.703125 C 10.425781 1.804688 10.820312 1.710938 11.1875 1.421875 C 11.550781 1.140625 11.722656 0.789062 11.703125 0.375 C 11.691406 -0.0390625 11.503906 -0.484375 11.140625 -0.953125 Z M 5.8125 -0.375 L 3.328125 1.578125 L 5.078125 3.796875 C 5.523438 4.378906 5.984375 4.742188 6.453125 4.890625 C 6.921875 5.035156 7.359375 4.953125 7.765625 4.640625 C 8.140625 4.335938 8.3125 3.9375 8.28125 3.4375 C 8.25 2.945312 8.007812 2.414062 7.5625 1.84375 Z M 5.8125 -0.375 "/></g></g></g><g fill="#151419" fill-opacity="1"><g transform="translate(123.758192, 257.619191)"><g><path d="M 8.8125 6.53125 L 7.328125 5.4375 L 10.03125 1.78125 L 5.359375 -1.6875 L 2.65625 1.96875 L 1.15625 0.859375 L 7.703125 -7.984375 L 9.203125 -6.875 L 6.359375 -3.03125 L 11.03125 0.4375 L 13.875 -3.40625 L 15.359375 -2.3125 Z M 8.8125 6.53125 "/></g></g></g><g fill="#151419" fill-opacity="1"><g transform="translate(146.120222, 271.744342)"><g><path d="M 8.875 0.75 L 3.6875 -1.234375 L 1.828125 0.703125 L 0.015625 0 L 8.484375 -8.515625 L 10.25 -7.84375 L 10.8125 4.15625 L 8.953125 3.4375 Z M 8.796875 -1.03125 L 8.609375 -6.359375 L 4.921875 -2.515625 Z M 8.796875 -1.03125 "/></g></g></g><g fill="#151419" fill-opacity="1"><g transform="translate(170.645242, 279.18115)"><g><path d="M 10.921875 1.046875 L 9.109375 0.875 L 4.03125 -7.546875 L 3.28125 0.3125 L 1.4375 0.140625 L 2.484375 -10.8125 L 4.296875 -10.640625 L 9.40625 -2.203125 L 10.15625 -10.078125 L 11.96875 -9.90625 Z M 10.921875 1.046875 "/></g></g></g><g fill="#151419" fill-opacity="1"><g transform="translate(197.125756, 279.761511)"><g><path d="M -0.53125 -11.078125 L 3.90625 -11.890625 C 5.519531 -12.179688 6.945312 -11.910156 8.1875 -11.078125 C 9.425781 -10.242188 10.1875 -9.039062 10.46875 -7.46875 C 10.757812 -5.90625 10.460938 -4.519531 9.578125 -3.3125 C 8.703125 -2.101562 7.445312 -1.347656 5.8125 -1.046875 L 1.421875 -0.25 Z M 1.59375 -9.765625 L 2.953125 -2.234375 L 5.609375 -2.703125 C 6.660156 -2.898438 7.476562 -3.410156 8.0625 -4.234375 C 8.644531 -5.066406 8.835938 -6.03125 8.640625 -7.125 C 8.441406 -8.21875 7.910156 -9.054688 7.046875 -9.640625 C 6.191406 -10.222656 5.234375 -10.414062 4.171875 -10.21875 Z M 1.59375 -9.765625 "/></g></g></g><g fill="#151419" fill-opacity="1"><g transform="translate(222.487348, 273.218438)"><g><path d="M 6.625 -5.9375 L 1.625 -3.53125 L 1.765625 -0.84375 L 0.015625 0 L -0.375 -12.015625 L 1.328125 -12.84375 L 10.4375 -5.015625 L 8.640625 -4.15625 Z M 5.265625 -7.109375 L 1.296875 -10.625 L 1.546875 -5.3125 Z M 5.265625 -7.109375 "/></g></g></g><g fill="#151419" fill-opacity="1"><g transform="translate(244.673927, 260.470671)"><g><path d="M 6.375 -5.515625 L 2.671875 -6.703125 C 2.585938 -6.628906 2.460938 -6.515625 2.296875 -6.359375 L 0.328125 -4.65625 L 2.5 -2.15625 L 1.09375 -0.9375 L -6.109375 -9.25 L -2.734375 -12.171875 C -1.671875 -13.097656 -0.632812 -13.566406 0.375 -13.578125 C 1.394531 -13.585938 2.296875 -13.140625 3.078125 -12.234375 C 3.648438 -11.578125 3.988281 -10.882812 4.09375 -10.15625 C 4.195312 -9.4375 4.0625 -8.738281 3.6875 -8.0625 L 7.953125 -6.875 Z M -0.765625 -5.921875 L 1.203125 -7.625 C 2.546875 -8.789062 2.738281 -9.929688 1.78125 -11.046875 C 0.84375 -12.117188 -0.296875 -12.070312 -1.640625 -10.90625 L -3.609375 -9.203125 Z M -0.765625 -5.921875 "/></g></g></g><g fill="#151419" fill-opacity="1"><g transform="translate(262.343437, 242.613363)"><g><path d="M 1.9375 -2.65625 L 0.84375 -1.15625 L -8.046875 -7.640625 L -6.953125 -9.140625 Z M 1.9375 -2.65625 "/></g></g></g></svg>